<?xml version="1.0" encoding="iso-8859-1"?>
<!-- Generator: Adobe Illustrator 19.0.0, SVG Export Plug-In . SVG Version: 6.00 Build 0)  -->
<svg version="1.1" id="Capa_1" xmlns="http://www.w3.org/2000/svg" xmlns:xlink="http://www.w3.org/1999/xlink" x="0px" y="0px"
	 viewBox="0 0 512.073 512.073" style="enable-background:new 0 0 512.073 512.073;" xml:space="preserve">
<g transform="translate(-1)">
	<path style="fill:#2980BA;" d="M341.34,31.022c9.361,8.203,16.215,18.882,19.774,30.808c7.945,24.276,66.913,70.797,136.828,78.389
		c4.955,0.667,9.387,3.426,12.172,7.579c2.785,4.152,3.657,9.3,2.393,14.137c-19.244,78.389-96.927,349.484-254.941,350.102h-1.059
		C98.493,511.419,20.811,240.324,1.566,161.935c-1.263-4.838-0.392-9.985,2.394-14.137c2.785-4.152,7.217-6.912,12.172-7.579
		c69.914-7.592,128.883-54.113,136.828-78.389c3.559-11.926,10.413-22.606,19.774-30.808H341.34z"/>
	<g>
		<path style="fill:#3B97D3;" d="M115.91,345.319c-21.266-40.784-38.85-83.384-52.542-127.294c-0.811-3.183-3.322-5.653-6.519-6.411
			c-3.196-0.758-6.549,0.322-8.702,2.803c-2.153,2.481-2.751,5.952-1.551,9.01c14.001,44.923,31.99,88.505,53.751,130.225
			c2.336,4.228,7.636,5.793,11.894,3.513S118.134,349.607,115.91,345.319z"/>
		<path style="fill:#3B97D3;" d="M52.802,183.015c-1.333-4.696-2.551-9.119-3.646-13.241c-0.817-3.047-3.197-5.426-6.244-6.242
			c-3.047-0.816-6.297,0.056-8.527,2.286c-2.23,2.231-3.101,5.482-2.284,8.528c1.121,4.167,2.357,8.669,3.708,13.453
			c1.067,3.805,4.532,6.437,8.483,6.444c0.812,0.001,1.62-0.112,2.401-0.335c2.255-0.634,4.166-2.138,5.312-4.181
			C53.15,187.684,53.437,185.27,52.802,183.015z"/>
	</g>
	<path style="fill:#285680;" d="M345.313,44.175c0,24.364-39.548,44.138-88.276,44.138s-88.276-19.774-88.276-44.138
		c0.064-4.67,1.44-9.228,3.972-13.153c11.211-17.92,44.756-30.985,84.303-30.985s73.004,12.977,84.215,30.897l0.088,0.088
		C343.872,34.946,345.249,39.504,345.313,44.175z"/>
	<path style="fill:#F0C419;" d="M265.864,167.761v52.966c0,4.875-3.952,8.828-8.828,8.828c-4.875,0-8.828-3.952-8.828-8.828v-52.966
		c0.023-4.278,3.111-7.924,7.327-8.651c0.998,2.775,1.505,5.702,1.501,8.651c-0.005-2.949,0.503-5.876,1.501-8.651
		C262.753,159.837,265.841,163.483,265.864,167.761z"/>
	<path style="fill:#F29C1F;" d="M274.692,273.692c-4.875,0-8.828-3.952-8.828-8.828v-26.227c0-4.875-3.952-8.828-8.828-8.828
		c-4.875,0-8.828,3.952-8.828,8.828v26.227c0,4.875-3.952,8.828-8.828,8.828s-8.828-3.952-8.828-8.828v-26.227
		c0-14.626,11.857-26.483,26.483-26.483c14.626,0,26.483,11.857,26.483,26.483v26.227
		C283.52,269.74,279.567,273.692,274.692,273.692z"/>
	<path style="fill:#E6E7E8;" d="M336.485,309.179l-72.121,75.388c-1.64,2.44-4.387,3.904-7.327,3.904
		c-2.94,0-5.687-1.464-7.327-3.904l-63.823-66.737l-8.298-8.651l7.15-9.004l28.16-35.31h88.276L336.485,309.179z"/>
	<path style="fill:#FFFFFF;" d="M301.175,309.002c0,4.875-3.952,8.828-8.828,8.828H185.886l-8.298-8.651l7.15-9.004h107.608
		C297.222,300.175,301.175,304.127,301.175,309.002z"/>
	<circle style="fill:#90BAE1;" cx="135.04" cy="116.34" r="28.028"/>
	
		<ellipse transform="matrix(-0.4404 -0.8978 0.8978 -0.4404 87.9696 273.6554)" style="fill:#B0D3F0;" cx="129.272" cy="109.411" rx="13.241" ry="17.655"/>
	<g>
		<circle style="fill:#90BAE1;" cx="178.736" cy="151.253" r="27.648"/>
		<circle style="fill:#90BAE1;" cx="379.078" cy="116.34" r="28.028"/>
		<circle style="fill:#90BAE1;" cx="335.32" cy="151.253" r="27.648"/>
		<path style="fill:#90BAE1;" d="M257.037,167.761c-0.053,14.604-11.879,26.43-26.483,26.483
			c-13.498,0.024-24.854-10.107-26.364-23.519s7.309-25.816,20.474-28.793c13.165-2.978,26.463,4.422,30.873,17.179
			C256.534,161.885,257.041,164.812,257.037,167.761z"/>
		<path style="fill:#90BAE1;" d="M310.002,167.761c0,14.626-11.857,26.483-26.483,26.483c-14.604-0.053-26.43-11.879-26.483-26.483
			c-0.005-2.949,0.503-5.876,1.501-8.651c4.274-12.151,16.67-19.464,29.372-17.329C300.612,143.916,309.936,154.881,310.002,167.761
			z"/>
	</g>
	<g>
		
			<ellipse transform="matrix(-0.4404 -0.8978 0.8978 -0.4404 124.7632 367.2244)" style="fill:#B0D3F0;" cx="176.83" cy="144.729" rx="13.241" ry="17.655"/>
		
			<ellipse transform="matrix(-0.4404 -0.8978 0.8978 -0.4404 343.1703 503.3262)" style="fill:#B0D3F0;" cx="328.451" cy="144.711" rx="13.241" ry="17.655"/>
		
			<ellipse transform="matrix(-0.4404 -0.8978 0.8978 -0.4404 436.7095 494.869)" style="fill:#B0D3F0;" cx="372.584" cy="111.331" rx="13.241" ry="17.655"/>
		
			<ellipse transform="matrix(-0.4404 -0.8978 0.8978 -0.4404 182.4945 437.7005)" style="fill:#B0D3F0;" cx="227.66" cy="161.974" rx="11.935" ry="15.907"/>
		
			<ellipse transform="matrix(-0.4404 -0.8978 0.8978 -0.4404 258.6175 487.0145)" style="fill:#B0D3F0;" cx="281.091" cy="162.907" rx="11.935" ry="15.907"/>
	</g>
</g>
<g>
</g>
<g>
</g>
<g>
</g>
<g>
</g>
<g>
</g>
<g>
</g>
<g>
</g>
<g>
</g>
<g>
</g>
<g>
</g>
<g>
</g>
<g>
</g>
<g>
</g>
<g>
</g>
<g>
</g>
</svg>
