<?xml version="1.0" encoding="iso-8859-1"?>
<!-- Generator: Adobe Illustrator 19.0.0, SVG Export Plug-In . SVG Version: 6.00 Build 0)  -->
<svg version="1.1" id="Capa_1" xmlns="http://www.w3.org/2000/svg" xmlns:xlink="http://www.w3.org/1999/xlink" x="0px" y="0px"
	 viewBox="0 0 511.985 511.985" style="enable-background:new 0 0 511.985 511.985;" xml:space="preserve">
<g>
	<g>
		<path style="fill:#F0C419;" d="M345.328,31.216c-3.57-0.001-6.788-2.152-8.154-5.45s-0.611-7.094,1.913-9.619l10.478-10.531
			c3.461-3.461,9.074-3.461,12.535,0c3.461,3.461,3.461,9.074,0,12.535L351.569,28.63C349.914,30.285,347.669,31.216,345.328,31.216
			z"/>
		<path style="fill:#F0C419;" d="M134.966,105.015c-3.49-0.002-6.651-2.059-8.066-5.249c-1.415-3.19-0.817-6.914,1.524-9.502
			l32.397-35.752c2.079-2.476,5.346-3.617,8.514-2.975c3.169,0.642,5.733,2.966,6.683,6.056c0.951,3.09,0.136,6.453-2.124,8.765
			l-32.397,35.761C139.827,103.962,137.455,105.013,134.966,105.015z"/>
	</g>
	<path style="fill:#F29C1F;" d="M185.372,76.413c-19.501,0-35.31-15.809-35.31-35.31s15.809-35.31,35.31-35.31
		s35.31,15.809,35.31,35.31c0,9.365-3.72,18.346-10.342,24.968C203.718,72.693,194.737,76.413,185.372,76.413z M185.372,23.448
		c-9.751,0-17.655,7.904-17.655,17.655s7.904,17.655,17.655,17.655s17.655-7.904,17.655-17.655c0-4.682-1.86-9.173-5.171-12.484
		C194.545,25.308,190.054,23.448,185.372,23.448z"/>
	<path style="fill:#F0C419;" d="M377.019,105.015c-2.491,0.001-4.867-1.051-6.541-2.895l-32.388-35.761
		c-3.119-3.63-2.777-9.084,0.77-12.296c3.547-3.212,9.009-3.013,12.312,0.45l32.397,35.752c2.342,2.588,2.939,6.312,1.524,9.502
		c-1.415,3.19-4.576,5.247-8.066,5.249H377.019z"/>
	<path style="fill:#F29C1F;" d="M326.613,76.413c-4.875,0-8.828-3.952-8.828-8.828s3.952-8.828,8.828-8.828
		c9.751,0,17.655-7.904,17.655-17.655s-7.905-17.655-17.655-17.655s-17.655,7.904-17.655,17.655c0,4.875-3.952,8.828-8.828,8.828
		s-8.828-3.952-8.828-8.828c0-19.501,15.809-35.31,35.31-35.31s35.31,15.809,35.31,35.31S346.115,76.413,326.613,76.413z"/>
	<path style="fill:#67B9CC;" d="M415.772,172.458h-0.088c-3.158,0.71-6.385,1.066-9.622,1.059
		c-20.564-0.024-38.379-14.261-42.937-34.313c-4.558-20.052,5.352-40.592,23.885-49.503c18.533-8.911,40.764-3.825,53.58,12.256
		c12.816,16.082,12.811,38.887-0.011,54.964h-0.088L415.772,172.458z"/>
	<path style="fill:#2FA8CC;" d="M475.711,236.016c15.683-11.109,22.374-31.09,16.545-49.403s-22.838-30.75-42.057-30.751
		c-3.237-0.006-6.464,0.349-9.622,1.059h-0.088c-9.769,2.211-18.49,7.692-24.717,15.537h-0.088
		c-9.699,12.149-12.291,28.505-6.825,43.057c5.466,14.553,18.185,25.157,33.484,27.917L475.711,236.016z"/>
	<path style="fill:#67B9CC;" d="M442.343,315.464c-15.683-11.109-22.374-31.09-16.545-49.403
		c5.829-18.314,22.838-30.75,42.057-30.751c2.634,0.012,5.262,0.248,7.857,0.706c21.002,3.803,36.274,22.088,36.274,43.432
		c0,21.343-15.272,39.629-36.274,43.432L442.343,315.464z"/>
	<path style="fill:#2FA8CC;" d="M407.209,368.871c-0.788-3.266-1.174-6.616-1.148-9.975c0.001-21.346,15.277-39.632,36.281-43.432
		c2.594-0.458,5.222-0.694,7.857-0.706c24.377,0,44.138,19.761,44.138,44.138c0,24.377-19.761,44.138-44.138,44.138
		c-3.359,0.026-6.709-0.359-9.975-1.148L407.209,368.871z"/>
	<path style="fill:#67B9CC;" d="M96.213,172.458c18.286,4.124,37.181-3.752,47.126-19.642c9.944-15.89,8.767-36.327-2.935-50.97
		s-31.378-20.297-49.069-14.102c-17.691,6.196-29.539,22.89-29.549,41.635c-0.026,10.024,3.403,19.751,9.71,27.542L96.213,172.458z"
		/>
	<path style="fill:#2FA8CC;" d="M36.274,236.016c-14.151-9.937-21.196-27.222-18.023-44.22s15.979-30.578,32.762-34.741
		c16.783-4.163,34.451,1.858,45.2,15.402h0.088c9.699,12.149,12.291,28.505,6.825,43.057c-5.466,14.553-18.185,25.157-33.484,27.917
		L36.274,236.016z"/>
	<path style="fill:#67B9CC;" d="M69.642,315.464c15.683-11.109,22.374-31.09,16.545-49.403
		c-5.829-18.314-22.838-30.75-42.057-30.751c-2.634,0.012-5.262,0.248-7.857,0.706C15.272,239.819,0,258.104,0,279.448
		c0,21.343,15.272,39.629,36.274,43.432L69.642,315.464z"/>
	<path style="fill:#2FA8CC;" d="M104.776,368.871c0.788-3.266,1.174-6.616,1.148-9.975c-0.001-21.346-15.277-39.632-36.281-43.432
		c-2.594-0.458-5.222-0.694-7.857-0.706c-24.377,0-44.138,19.761-44.138,44.138c0,24.377,19.761,44.138,44.138,44.138
		c3.359,0.026,6.709-0.359,9.975-1.148L104.776,368.871z"/>
	<path style="fill:#67B9CC;" d="M158.624,415.658c0.179-1.257,0.268-2.526,0.265-3.796c0-24.377-19.761-44.138-44.138-44.138
		c-3.359-0.026-6.709,0.359-9.975,1.148c-16.38,3.845-29.17,16.635-33.015,33.015c-0.788,3.266-1.174,6.616-1.148,9.975
		c0,24.377,19.761,44.138,44.138,44.138c6.175,0.022,12.284-1.272,17.92-3.796L158.624,415.658z"/>
	<path style="fill:#2FA8CC;" d="M218.387,441.787c-6.11-17.899-22.93-29.928-41.843-29.926c-6.175-0.022-12.284,1.272-17.92,3.796
		c-14.671,6.535-24.618,20.541-25.953,36.546c-0.179,1.257-0.268,2.526-0.265,3.796c0.03,19.74,13.164,37.06,32.164,42.415
		c19,5.355,39.245-2.556,49.58-19.375L218.387,441.787z"/>
	<path style="fill:#67B9CC;" d="M353.361,415.658c-0.179-1.257-0.268-2.526-0.265-3.796c0-24.377,19.761-44.138,44.138-44.138
		c3.359-0.026,6.709,0.359,9.975,1.148c16.38,3.845,29.17,16.635,33.015,33.015c0.788,3.266,1.174,6.616,1.148,9.975
		c0,24.377-19.761,44.138-44.138,44.138c-6.175,0.022-12.284-1.272-17.92-3.796L353.361,415.658z"/>
	<path style="fill:#2FA8CC;" d="M293.598,441.787c6.11-17.899,22.93-29.928,41.843-29.926c6.175-0.022,12.284,1.272,17.92,3.796
		c14.671,6.535,24.618,20.541,25.953,36.546c0.179,1.257,0.268,2.526,0.265,3.796c-0.03,19.74-13.164,37.06-32.164,42.415
		c-19,5.355-39.245-2.556-49.58-19.375L293.598,441.787z"/>
	<circle style="fill:#67B9CC;" cx="255.993" cy="464.827" r="44.138"/>
	<g>
		
			<ellipse transform="matrix(-0.8325 -0.5541 0.5541 -0.8325 96.1351 266.6927)" style="fill:#9FC9D3;" cx="88.388" cy="118.812" rx="14.883" ry="20.295"/>
		
			<ellipse transform="matrix(-0.8325 -0.5541 0.5541 -0.8325 -101.5586 506.1324)" style="fill:#9FC9D3;" cx="25.741" cy="268.421" rx="14.883" ry="20.295"/>
	</g>
	
		<ellipse transform="matrix(-0.8325 -0.5541 0.5541 -0.8325 -110.3569 671.1943)" style="fill:#67B9CC;" cx="46.298" cy="352.282" rx="14.883" ry="20.295"/>
	
		<ellipse transform="matrix(-0.8325 -0.5541 0.5541 -0.8325 -44.1667 788.2917)" style="fill:#9FC9D3;" cx="97.096" cy="400.823" rx="14.883" ry="20.295"/>
	
		<ellipse transform="matrix(-0.8325 -0.5541 0.5541 -0.8325 46.0718 905.9944)" style="fill:#67B9CC;" cx="160.011" cy="446.032" rx="14.883" ry="20.295"/>
	
		<ellipse transform="matrix(-0.8325 -0.5541 0.5541 -0.8325 193.5829 972.6959)" style="fill:#9FC9D3;" cx="243.851" cy="457.081" rx="14.883" ry="20.295"/>
	
		<ellipse transform="matrix(-0.8325 -0.5541 0.5541 -0.8325 -23.2353 375.4799)" style="fill:#67B9CC;" cx="45.15" cy="191.253" rx="14.883" ry="20.295"/>
	<g>
		
			<ellipse transform="matrix(-0.8325 -0.5541 0.5541 -0.8325 651.4119 437.4545)" style="fill:#9FC9D3;" cx="391.843" cy="120.242" rx="14.883" ry="20.295"/>
		
			<ellipse transform="matrix(-0.8325 -0.5541 0.5541 -0.8325 676.9161 741.4905)" style="fill:#9FC9D3;" cx="450.562" cy="268.404" rx="14.883" ry="20.295"/>
	</g>
	
		<ellipse transform="matrix(-0.8325 -0.5541 0.5541 -0.8325 604.9907 877.202)" style="fill:#67B9CC;" cx="435.117" cy="347.134" rx="14.883" ry="20.295"/>
	
		<ellipse transform="matrix(-0.8324 -0.5542 0.5542 -0.8324 481.8887 941.7582)" style="fill:#9FC9D3;" cx="383.372" cy="398" rx="14.875" ry="20.286"/>
	<g>
		
			<ellipse transform="matrix(-0.8325 -0.5541 0.5541 -0.8325 348.6339 997.5963)" style="fill:#67B9CC;" cx="325.141" cy="446.089" rx="14.883" ry="20.295"/>
		
			<ellipse transform="matrix(-0.8325 -0.5541 0.5541 -0.8325 693.3959 590.0131)" style="fill:#67B9CC;" cx="435.9" cy="190.174" rx="14.883" ry="20.295"/>
	</g>
</g>
<g>
</g>
<g>
</g>
<g>
</g>
<g>
</g>
<g>
</g>
<g>
</g>
<g>
</g>
<g>
</g>
<g>
</g>
<g>
</g>
<g>
</g>
<g>
</g>
<g>
</g>
<g>
</g>
<g>
</g>
</svg>
